<mxfile host="app.diagrams.net" agent="Mozilla/5.0 (Macintosh; Intel Mac OS X 10_15_7) AppleWebKit/605.1.15 (KHTML, like Gecko) Version/16.6 Safari/605.1.15" version="26.0.9">
  <diagram id="C5RBs43oDa-KdzZeNtuy" name="Page-1">
    <mxGraphModel dx="1363" dy="924" grid="1" gridSize="10" guides="1" tooltips="1" connect="1" arrows="1" fold="1" page="1" pageScale="1" pageWidth="827" pageHeight="1169" math="0" shadow="0">
      <root>
        <mxCell id="WIyWlLk6GJQsqaUBKTNV-0" />
        <mxCell id="WIyWlLk6GJQsqaUBKTNV-1" parent="WIyWlLk6GJQsqaUBKTNV-0" />
        <mxCell id="qwA06I4DGmJL4mk_iEs--6" style="edgeStyle=orthogonalEdgeStyle;rounded=0;orthogonalLoop=1;jettySize=auto;html=1;exitX=0.5;exitY=1;exitDx=0;exitDy=0;endArrow=block;endFill=0;" edge="1" parent="WIyWlLk6GJQsqaUBKTNV-1" source="WIyWlLk6GJQsqaUBKTNV-3" target="qwA06I4DGmJL4mk_iEs--5">
          <mxGeometry relative="1" as="geometry" />
        </mxCell>
        <mxCell id="qwA06I4DGmJL4mk_iEs--9" style="edgeStyle=orthogonalEdgeStyle;rounded=0;orthogonalLoop=1;jettySize=auto;html=1;exitX=0.5;exitY=1;exitDx=0;exitDy=0;entryX=0.5;entryY=0;entryDx=0;entryDy=0;" edge="1" parent="WIyWlLk6GJQsqaUBKTNV-1" source="WIyWlLk6GJQsqaUBKTNV-3" target="qwA06I4DGmJL4mk_iEs--8">
          <mxGeometry relative="1" as="geometry" />
        </mxCell>
        <mxCell id="qwA06I4DGmJL4mk_iEs--10" style="edgeStyle=orthogonalEdgeStyle;rounded=0;orthogonalLoop=1;jettySize=auto;html=1;exitX=0.5;exitY=1;exitDx=0;exitDy=0;entryX=0.5;entryY=0;entryDx=0;entryDy=0;" edge="1" parent="WIyWlLk6GJQsqaUBKTNV-1" source="WIyWlLk6GJQsqaUBKTNV-3" target="qwA06I4DGmJL4mk_iEs--2">
          <mxGeometry relative="1" as="geometry" />
        </mxCell>
        <mxCell id="qwA06I4DGmJL4mk_iEs--14" style="edgeStyle=orthogonalEdgeStyle;rounded=0;orthogonalLoop=1;jettySize=auto;html=1;exitX=0.5;exitY=1;exitDx=0;exitDy=0;endArrow=block;endFill=0;" edge="1" parent="WIyWlLk6GJQsqaUBKTNV-1" source="WIyWlLk6GJQsqaUBKTNV-3" target="qwA06I4DGmJL4mk_iEs--12">
          <mxGeometry relative="1" as="geometry" />
        </mxCell>
        <mxCell id="qwA06I4DGmJL4mk_iEs--17" style="edgeStyle=orthogonalEdgeStyle;rounded=0;orthogonalLoop=1;jettySize=auto;html=1;exitX=0.5;exitY=1;exitDx=0;exitDy=0;entryX=0.5;entryY=0;entryDx=0;entryDy=0;" edge="1" parent="WIyWlLk6GJQsqaUBKTNV-1" source="WIyWlLk6GJQsqaUBKTNV-3" target="qwA06I4DGmJL4mk_iEs--16">
          <mxGeometry relative="1" as="geometry" />
        </mxCell>
        <mxCell id="WIyWlLk6GJQsqaUBKTNV-3" value="Main program" style="rounded=1;whiteSpace=wrap;html=1;fontSize=12;glass=0;strokeWidth=1;shadow=0;" parent="WIyWlLk6GJQsqaUBKTNV-1" vertex="1">
          <mxGeometry x="354" y="20" width="120" height="40" as="geometry" />
        </mxCell>
        <mxCell id="qwA06I4DGmJL4mk_iEs--20" value="" style="edgeStyle=orthogonalEdgeStyle;rounded=0;orthogonalLoop=1;jettySize=auto;html=1;" edge="1" parent="WIyWlLk6GJQsqaUBKTNV-1" source="qwA06I4DGmJL4mk_iEs--2" target="qwA06I4DGmJL4mk_iEs--19">
          <mxGeometry relative="1" as="geometry" />
        </mxCell>
        <mxCell id="qwA06I4DGmJL4mk_iEs--2" value="mem_init(size)" style="rounded=1;whiteSpace=wrap;html=1;fontSize=12;glass=0;strokeWidth=1;shadow=0;" vertex="1" parent="WIyWlLk6GJQsqaUBKTNV-1">
          <mxGeometry x="24" y="170" width="120" height="40" as="geometry" />
        </mxCell>
        <mxCell id="qwA06I4DGmJL4mk_iEs--28" value="" style="edgeStyle=orthogonalEdgeStyle;rounded=0;orthogonalLoop=1;jettySize=auto;html=1;" edge="1" parent="WIyWlLk6GJQsqaUBKTNV-1" source="qwA06I4DGmJL4mk_iEs--5" target="qwA06I4DGmJL4mk_iEs--27">
          <mxGeometry relative="1" as="geometry" />
        </mxCell>
        <mxCell id="qwA06I4DGmJL4mk_iEs--5" value="mem_alloc(size)" style="rounded=1;whiteSpace=wrap;html=1;fontSize=12;glass=0;strokeWidth=1;shadow=0;" vertex="1" parent="WIyWlLk6GJQsqaUBKTNV-1">
          <mxGeometry x="184" y="170" width="120" height="40" as="geometry" />
        </mxCell>
        <mxCell id="qwA06I4DGmJL4mk_iEs--8" value="mem_free(block)" style="rounded=1;whiteSpace=wrap;html=1;fontSize=12;glass=0;strokeWidth=1;shadow=0;" vertex="1" parent="WIyWlLk6GJQsqaUBKTNV-1">
          <mxGeometry x="344" y="170" width="120" height="40" as="geometry" />
        </mxCell>
        <mxCell id="qwA06I4DGmJL4mk_iEs--12" value="mem_resize(block, size)" style="rounded=1;whiteSpace=wrap;html=1;fontSize=12;glass=0;strokeWidth=1;shadow=0;" vertex="1" parent="WIyWlLk6GJQsqaUBKTNV-1">
          <mxGeometry x="504" y="170" width="140" height="40" as="geometry" />
        </mxCell>
        <mxCell id="qwA06I4DGmJL4mk_iEs--16" value="mem_deinit()" style="rounded=1;whiteSpace=wrap;html=1;fontSize=12;glass=0;strokeWidth=1;shadow=0;" vertex="1" parent="WIyWlLk6GJQsqaUBKTNV-1">
          <mxGeometry x="684" y="170" width="120" height="40" as="geometry" />
        </mxCell>
        <mxCell id="qwA06I4DGmJL4mk_iEs--24" value="" style="edgeStyle=orthogonalEdgeStyle;rounded=0;orthogonalLoop=1;jettySize=auto;html=1;" edge="1" parent="WIyWlLk6GJQsqaUBKTNV-1" source="qwA06I4DGmJL4mk_iEs--19" target="qwA06I4DGmJL4mk_iEs--23">
          <mxGeometry relative="1" as="geometry" />
        </mxCell>
        <mxCell id="qwA06I4DGmJL4mk_iEs--19" value="Allocate space in the memory" style="whiteSpace=wrap;html=1;rounded=1;glass=0;strokeWidth=1;shadow=0;" vertex="1" parent="WIyWlLk6GJQsqaUBKTNV-1">
          <mxGeometry x="26" y="300" width="116" height="40" as="geometry" />
        </mxCell>
        <mxCell id="qwA06I4DGmJL4mk_iEs--23" value="Initialize MemPool &amp;amp; MemPool.mutex" style="whiteSpace=wrap;html=1;rounded=1;glass=0;strokeWidth=1;shadow=0;" vertex="1" parent="WIyWlLk6GJQsqaUBKTNV-1">
          <mxGeometry x="27" y="410" width="114" height="40" as="geometry" />
        </mxCell>
        <mxCell id="qwA06I4DGmJL4mk_iEs--37" value="" style="edgeStyle=orthogonalEdgeStyle;rounded=0;orthogonalLoop=1;jettySize=auto;html=1;" edge="1" parent="WIyWlLk6GJQsqaUBKTNV-1" source="qwA06I4DGmJL4mk_iEs--27" target="qwA06I4DGmJL4mk_iEs--36">
          <mxGeometry relative="1" as="geometry" />
        </mxCell>
        <mxCell id="qwA06I4DGmJL4mk_iEs--27" value="if size &amp;lt;= 0" style="rhombus;whiteSpace=wrap;html=1;rounded=1;glass=0;strokeWidth=1;shadow=0;" vertex="1" parent="WIyWlLk6GJQsqaUBKTNV-1">
          <mxGeometry x="204" y="270" width="80" height="80" as="geometry" />
        </mxCell>
        <mxCell id="qwA06I4DGmJL4mk_iEs--33" value="NULL" style="text;html=1;align=center;verticalAlign=middle;whiteSpace=wrap;rounded=0;" vertex="1" parent="WIyWlLk6GJQsqaUBKTNV-1">
          <mxGeometry x="320" y="295" width="60" height="30" as="geometry" />
        </mxCell>
        <mxCell id="qwA06I4DGmJL4mk_iEs--34" style="edgeStyle=orthogonalEdgeStyle;rounded=0;orthogonalLoop=1;jettySize=auto;html=1;exitX=1;exitY=0.5;exitDx=0;exitDy=0;" edge="1" parent="WIyWlLk6GJQsqaUBKTNV-1" source="qwA06I4DGmJL4mk_iEs--27" target="qwA06I4DGmJL4mk_iEs--33">
          <mxGeometry relative="1" as="geometry" />
        </mxCell>
        <mxCell id="qwA06I4DGmJL4mk_iEs--35" value="True" style="text;html=1;align=center;verticalAlign=middle;whiteSpace=wrap;rounded=0;" vertex="1" parent="WIyWlLk6GJQsqaUBKTNV-1">
          <mxGeometry x="270" y="280" width="60" height="30" as="geometry" />
        </mxCell>
        <mxCell id="qwA06I4DGmJL4mk_iEs--42" style="edgeStyle=orthogonalEdgeStyle;rounded=0;orthogonalLoop=1;jettySize=auto;html=1;exitX=1;exitY=0.5;exitDx=0;exitDy=0;" edge="1" parent="WIyWlLk6GJQsqaUBKTNV-1" source="qwA06I4DGmJL4mk_iEs--36" target="qwA06I4DGmJL4mk_iEs--38">
          <mxGeometry relative="1" as="geometry" />
        </mxCell>
        <mxCell id="qwA06I4DGmJL4mk_iEs--36" value="if size &amp;gt; MemPool.size" style="rhombus;whiteSpace=wrap;html=1;rounded=1;glass=0;strokeWidth=1;shadow=0;" vertex="1" parent="WIyWlLk6GJQsqaUBKTNV-1">
          <mxGeometry x="186" y="430" width="116" height="80" as="geometry" />
        </mxCell>
        <mxCell id="qwA06I4DGmJL4mk_iEs--38" value="NULL" style="text;html=1;align=center;verticalAlign=middle;whiteSpace=wrap;rounded=0;" vertex="1" parent="WIyWlLk6GJQsqaUBKTNV-1">
          <mxGeometry x="345" y="455" width="60" height="30" as="geometry" />
        </mxCell>
        <mxCell id="qwA06I4DGmJL4mk_iEs--40" value="True" style="text;html=1;align=center;verticalAlign=middle;whiteSpace=wrap;rounded=0;" vertex="1" parent="WIyWlLk6GJQsqaUBKTNV-1">
          <mxGeometry x="285" y="438" width="60" height="30" as="geometry" />
        </mxCell>
      </root>
    </mxGraphModel>
  </diagram>
</mxfile>
